<svg width="840" height="240" viewBox="0 0 840 240" fill="none" xmlns="http://www.w3.org/2000/svg">
<path d="M160.024 66.6584C160.024 66.6584 160.024 66.6484 160.024 66.6384C159.674 62.9184 159.304 59.0584 159.104 55.4084C159.034 54.0584 158.674 52.7784 158.094 51.6384C155.394 44.6084 152.774 37.9384 146.734 31.5584C146.164 30.6084 145.164 28.9384 144.074 26.9684C142.894 24.8484 140.944 23.2584 138.624 22.5384C135.844 21.6784 133.084 20.8684 130.424 20.0884C129.274 19.7484 128.134 19.4184 127.004 19.0884C126.364 18.8984 125.694 18.7784 125.024 18.7284C124.514 18.6884 123.994 18.6684 123.444 18.6584C123.154 18.5484 122.764 18.3984 122.254 18.1884C120.824 17.5984 119.754 17.1284 118.894 16.7584C117.204 16.0284 116.004 15.5084 114.584 15.0784C111.194 13.7384 107.584 13.7884 104.314 15.2484C103.834 15.4584 103.374 15.6884 102.924 15.9584C101.134 16.6984 97.8045 17.2284 96.6845 16.7984C96.2145 16.3384 95.6944 15.9284 95.1344 15.5684C93.7344 14.6784 80.9044 7.10838 62.3844 13.6184C58.4244 15.0084 54.0045 17.0884 49.2445 19.8084C48.9845 19.8984 48.7144 19.9884 48.4544 20.0884C47.2144 20.5284 46.0745 21.2284 45.1145 22.1384C45.0045 22.2484 44.8145 22.4084 44.6245 22.5784C36.1545 27.8784 28.3745 33.9284 24.1445 37.2184C23.2445 37.9184 22.5044 38.4984 21.9244 38.9284C15.6544 43.6684 6.67445 56.0384 6.83445 66.0084C6.89445 70.0784 8.32446 73.2884 9.81447 75.7184C6.91446 78.0484 3.37446 81.4484 4.09446 86.8584C4.40446 89.2284 5.53447 91.3384 7.25447 92.8884C7.73447 94.9384 8.81445 96.7084 10.3645 98.0484C6.59445 107.478 9.60447 118.338 11.7845 124.048C15.1445 132.878 20.4345 140.338 25.9244 143.978C26.8844 144.618 27.8245 145.038 28.9345 145.298C29.7545 145.508 30.7544 145.898 31.5144 146.278C31.5144 148.148 31.7345 149.918 31.9645 151.498C28.1845 151.588 24.8145 153.928 23.4145 157.458C19.8445 166.468 23.5245 177.018 25.9645 183.998L26.0545 184.258C26.3445 185.078 26.7445 185.858 27.2445 186.568C33.1545 194.988 40.6045 201.388 47.8145 207.578C48.7345 208.368 49.6544 209.158 50.5744 209.958C51.1744 210.478 51.8345 210.918 52.5345 211.268C54.7245 212.368 57.1045 213.608 59.7445 215.038C60.2645 215.808 60.7345 216.578 61.1545 217.328C61.5745 219.298 62.3644 222.368 65.3844 225.268C67.3844 227.188 70.1244 228.138 72.8844 227.858C75.3544 227.608 78.0245 227.388 81.0444 227.198L87.7545 227.748C92.0045 228.358 93.0945 228.628 93.1845 228.658C94.0245 228.898 94.8845 229.008 95.7545 229.008C96.2045 229.008 96.6645 228.978 97.1145 228.908L99.7545 228.528C102.194 228.178 104.724 227.818 107.244 227.418C109.224 227.108 111.044 226.178 112.464 224.768C114.054 223.178 115.084 221.138 115.514 218.698C118.604 208.898 123.294 192.808 124.394 182.138C125.784 180.748 127.474 178.978 128.994 177.138C129.294 176.878 129.564 176.598 129.824 176.308C130.964 175.308 131.864 174.018 132.424 172.538L132.574 172.148C132.724 171.758 132.864 171.378 132.994 171.008C132.994 170.998 133.004 170.978 133.014 170.968C133.024 170.968 133.034 170.968 133.044 170.958C140.444 168.288 145.614 160.618 145.354 152.728C145.344 152.408 145.324 152.098 145.314 151.768C145.434 150.948 145.454 150.118 145.354 149.278C145.004 146.288 144.404 143.778 143.504 141.588C143.264 141.008 143.224 140.838 142.904 140.368C142.844 140.238 142.784 140.068 142.734 139.918C142.984 138.878 143.414 137.328 144.174 135.098C144.504 134.118 144.684 133.088 144.684 132.048C144.684 131.278 144.684 130.498 144.694 129.708C144.724 124.768 144.764 119.308 143.584 113.828C144.064 112.968 144.424 112.018 144.614 110.998C145.034 108.848 145.454 106.658 145.364 104.508C145.994 103.888 146.544 103.178 146.984 102.388C147.164 102.068 147.334 101.768 147.494 101.468C151.334 96.9984 154.334 89.9584 156.244 84.6184C157.854 80.1084 160.484 71.7584 160.014 66.6084L160.024 66.6584Z" fill="#63626B"/>
<path fill-rule="evenodd" clip-rule="evenodd" d="M84.9943 217.068C85.0943 217.328 85.2543 217.538 85.3643 217.908C90.9243 218.638 94.3943 219.198 95.7543 219.588C99.0043 219.118 102.424 218.648 105.784 218.118C107.724 216.178 103.734 200.588 101.164 198.018C95.1243 199.488 90.0343 211.928 84.9443 217.018L84.9943 217.068Z" fill="white"/>
<path fill-rule="evenodd" clip-rule="evenodd" d="M76.7543 208.518C74.0743 202.118 69.7243 196.078 66.3643 189.778C65.3843 188.908 62.7943 187.208 58.5943 184.688C47.4643 177.178 41.0643 171.718 33.6643 160.958H32.1943C29.8843 166.788 33.0343 175.608 34.9743 181.168C40.9043 189.618 48.8843 196.028 56.7543 202.848C59.9043 204.418 63.0543 206.098 66.2043 207.838C67.7443 209.938 69.0343 211.998 70.0843 214.028C70.5543 215.968 70.5543 217.178 71.9243 218.488C75.5443 218.118 79.1643 217.858 82.7943 217.648C80.8543 214.028 78.9143 213.918 78.9143 209.038C78.1843 208.778 77.4443 208.668 76.7643 208.568V208.518H76.7543Z" fill="white"/>
<path fill-rule="evenodd" clip-rule="evenodd" d="M106.994 161.328C104.824 161.568 101.884 162.258 98.1743 163.378C94.5543 162.648 96.3342 166.058 92.1342 165.218C90.9242 161.968 87.3043 161.598 84.3643 161.228C84.7343 168.738 84.1042 168.368 92.1342 169.098C95.6542 173.348 99.7443 174.188 104.944 175.288C109.304 175.188 119.804 175.028 121.894 170.088H122.734V169.248H123.574C124.514 166.728 125.254 164.998 124.884 162.368C118.114 161.738 113.754 165.048 106.984 161.428V161.328H106.994Z" fill="white"/>
<path fill-rule="evenodd" clip-rule="evenodd" d="M81.2144 168.828C80.9544 166.678 80.2744 164.948 79.2744 162.998H78.5444C78.5444 165.518 78.5444 166.728 79.4844 168.828H81.2144Z" fill="white"/>
<path fill-rule="evenodd" clip-rule="evenodd" d="M70.4543 164.848C71.5543 165.688 72.7644 166.688 73.9744 167.628C74.0744 167.528 74.2344 167.368 74.4444 167.368C74.4444 166.078 74.1643 164.618 73.6043 163.008C71.5543 162.748 70.4543 162.378 70.4543 164.848Z" fill="white"/>
<path fill-rule="evenodd" clip-rule="evenodd" d="M115.124 157.178C115.224 152.458 114.864 152.718 111.034 150.778C107.044 150.778 100.164 150.878 99.4343 155.868C103.794 156.338 108.254 156.968 112.764 157.548C113.494 157.448 114.334 157.288 115.174 157.178H115.124Z" fill="white"/>
<path fill-rule="evenodd" clip-rule="evenodd" d="M134.494 85.5785C134.024 83.0585 133.554 80.4884 133.024 77.9684C130.874 73.6084 128.664 69.3584 126.624 65.1584C126.064 64.5984 123.964 63.4284 120.324 61.6384C116.804 59.2284 114.864 57.9084 110.664 57.2784C107.774 55.3384 107.624 52.5584 103.994 54.4984C100.474 53.2884 97.1142 52.0884 93.7042 50.8784C88.1442 50.8784 83.1543 51.3484 77.5943 51.1384C75.7543 52.4484 73.9742 53.9184 72.1342 55.3884C71.4042 63.8384 81.3242 62.1584 83.7342 70.5084C84.2042 74.7584 83.7343 79.7984 86.1442 83.4784C90.5042 84.2084 95.5943 84.4184 99.4743 86.9984V88.0984C99.0043 88.1984 98.5343 88.3584 98.1643 88.4684C90.7643 86.5284 82.9443 86.0584 75.4343 87.6284C74.3343 88.7284 73.3843 89.9384 72.3943 91.1484C72.3943 91.6184 72.3943 92.2485 72.4943 92.8285C83.0443 91.2585 93.0743 92.4585 103.564 92.4585C104.034 92.7185 104.504 93.0884 105.034 93.3984C104.934 95.3384 103.824 97.2784 106.604 97.2784C106.914 96.9684 107.884 94.3784 109.494 89.5084C109.864 89.5084 110.334 89.5084 110.804 89.6084C110.904 90.9184 111.064 92.2884 111.174 93.5984C108.394 104.828 111.074 117.058 109.604 128.658C111.174 129.598 112.754 130.708 114.324 131.808C118.054 131.908 123.304 131.078 125.194 135.058C124.934 135.428 124.724 135.788 124.564 136.268C123.094 136.008 121.674 135.898 120.204 135.798C115.744 138.838 109.814 138.838 104.454 139.208C103.514 140.678 102.304 143.668 100.464 143.668C100.564 141.988 100.724 140.258 100.834 138.578C99.1543 138.838 97.4243 139.208 95.8443 139.518C94.9043 140.358 94.0043 141.088 92.6943 141.088C92.3243 140.458 91.9643 139.988 91.5943 139.518C85.7643 139.518 79.7343 141.828 74.4343 143.608C74.3343 143.868 74.1742 144.238 74.1742 144.548C77.5842 142.868 81.4143 143.448 85.1943 143.448C86.6643 142.138 87.8743 140.298 90.1243 141.038C90.0243 142.508 89.4943 143.348 89.6543 146.238C93.5343 146.968 94.1143 141.518 97.8943 141.518C98.2643 143.828 96.5843 144.928 96.5843 147.078C96.9543 147.178 97.4243 147.338 97.8943 147.548C98.7343 146.918 99.7342 146.338 100.674 145.868C102.824 147.078 104.084 147.078 106.504 147.078C108.654 145.138 110.124 142.618 112.174 146.138C114.224 147.608 118.474 149.388 120.884 149.658C121.514 150.128 122.354 152.808 123.194 153.538C125.504 153.278 125.714 152.808 127.284 152.808C127.754 153.648 128.384 154.488 128.964 155.488C129.224 155.228 129.594 155.018 129.904 154.858C130.274 153.178 130.004 152.078 131.214 150.868C132.894 150.868 134.624 151.708 135.934 150.398C135.694 148.298 135.284 146.568 134.724 145.198C132.044 143.728 129.634 142.678 129.164 139.738C129.894 139.478 132.574 139.838 133.154 139.478C133.464 137.628 134.154 135.158 135.204 132.078C135.204 125.678 135.574 118.638 133.364 112.498C128.064 109.348 123.814 108.508 117.404 108.248C114.994 102.788 114.364 98.0684 113.784 92.1384C114.044 91.8784 114.414 91.6684 114.724 91.5084C116.194 93.9184 117.034 96.9685 117.764 97.8085C118.394 97.7085 118.974 97.5485 119.604 97.5485C120.074 96.2385 120.544 95.0284 121.914 94.6584C127.374 95.8684 133.144 97.8085 138.714 97.8085C143.074 90.0385 143.074 89.0984 134.254 85.4684L134.464 85.5685L134.494 85.5785Z" fill="white"/>
<path fill-rule="evenodd" clip-rule="evenodd" d="M93.8145 150.928V149.618C93.4445 149.518 93.0844 149.358 92.7144 149.248C91.9844 149.978 91.2445 150.818 90.5645 151.658C90.6645 151.758 90.8244 152.028 90.9344 152.288C91.8744 151.818 92.8744 151.348 93.8244 150.978V150.928H93.8145Z" fill="white"/>
<path fill-rule="evenodd" clip-rule="evenodd" d="M64.3145 141.588C64.6845 142.318 65.0444 143.058 65.5244 143.738C66.8344 143.638 67.6744 143.368 68.7744 142.638C68.7744 140.698 66.9345 139.958 65.2545 139.958C64.8845 140.428 64.5245 140.898 64.3145 141.528V141.578V141.588Z" fill="white"/>
<path fill-rule="evenodd" clip-rule="evenodd" d="M28.3544 122.588C23.5244 115.348 23.1544 112.198 31.2444 108.778V107.468C30.4044 107.938 29.5644 108.408 28.8344 108.938C28.2044 107.998 27.7344 106.998 27.2644 106.158H25.5844C23.1744 113.298 22.5444 117.758 27.1544 123.798C27.5744 125.228 27.6644 126.198 27.4144 126.688C26.7844 126.588 26.2044 126.588 25.5744 126.588C21.1144 119.078 19.6444 110.998 19.6444 102.128C20.7644 100.208 21.4144 98.7482 21.5844 97.7682C12.5044 106.848 22.5244 130.418 31.1344 136.138C33.5444 135.878 36.4344 136.038 38.1644 134.298C38.1644 127.628 33.9144 125.948 28.3444 122.538V122.588H28.3544Z" fill="white"/>
<path fill-rule="evenodd" clip-rule="evenodd" d="M66.1044 110.148C63.9544 113.038 64.7944 120.178 64.8944 123.798C67.6744 125.478 69.9844 126.478 73.1344 127.418C75.6544 129.358 78.2244 131.298 80.7444 133.348C83.4744 132.368 85.9744 131.288 88.2544 130.098C91.8744 126.218 99.2744 118.968 96.2344 112.938C95.2544 112.938 93.8944 113.218 92.1444 113.778C91.7744 113.048 92.2444 112.208 92.6144 108.218C90.2044 106.748 82.0644 103.498 79.4344 104.968C79.9044 109.218 87.4144 108.848 90.8244 109.328C90.8244 109.588 90.9244 109.798 91.0844 110.168C87.5644 112.848 81.5344 110.428 77.5444 109.698C77.5444 112.738 84.6844 113.318 86.9944 113.948V115.158C81.0644 119.148 71.5144 110.228 66.2044 110.228L66.0944 110.178L66.1044 110.148Z" fill="white"/>
<path fill-rule="evenodd" clip-rule="evenodd" d="M29.1943 118.388C29.5643 118.128 30.0343 117.918 30.5043 117.758V115.818C30.2643 115.748 29.7343 115.988 28.9343 116.548C28.9343 117.178 29.0343 117.758 29.1943 118.388Z" fill="white"/>
<path fill-rule="evenodd" clip-rule="evenodd" d="M134.494 109.518C134.754 109.418 134.964 109.258 135.334 109.258C135.894 106.358 136.054 104.748 135.804 104.428H132.184C132.184 106.368 133.654 107.948 134.494 109.518Z" fill="white"/>
<path fill-rule="evenodd" clip-rule="evenodd" d="M91.7644 98.3882C90.0844 98.3882 84.8844 97.7582 83.7844 98.8582C83.7844 99.3482 84.1544 99.9583 84.8844 100.698C86.4944 100.208 88.9044 99.8082 92.1244 99.4882C92.0244 99.1182 91.8644 98.7582 91.7544 98.3882H91.7644Z" fill="white"/>
<path fill-rule="evenodd" clip-rule="evenodd" d="M29.5643 98.2882C29.4643 97.9182 29.3043 97.5581 29.3043 97.3481C26.6243 95.7781 25.7843 95.5082 23.1143 96.8782C24.7943 96.9782 25.8942 97.1381 27.1042 98.3481H29.5143L29.5643 98.2982V98.2882Z" fill="white"/>
<path fill-rule="evenodd" clip-rule="evenodd" d="M140.534 80.4882C141.004 82.0582 142.004 82.6382 143.314 83.7382C143.314 81.6882 142.944 80.4882 140.534 80.4882Z" fill="white"/>
<path fill-rule="evenodd" clip-rule="evenodd" d="M149.614 55.9285C146.834 48.6885 144.684 42.8584 139.224 37.3984C138.494 38.8684 138.124 39.2384 136.444 39.7084C136.864 40.9984 137.074 42.8884 137.074 45.3784C138.284 47.8984 140.224 49.7384 141.904 52.5184C141.904 53.8284 141.434 54.6684 141.534 56.8784C143.584 60.7584 146.464 63.9085 149.044 67.5385H150.614C150.244 63.6585 149.884 59.7685 149.674 55.9385H149.624L149.614 55.9285Z" fill="white"/>
<path fill-rule="evenodd" clip-rule="evenodd" d="M49.1944 34.6682C49.2944 35.1382 49.5643 35.6082 49.8243 36.1382C53.3443 35.7682 58.6444 33.9882 61.0544 31.5182H62.2643C64.3143 34.6682 60.2144 41.0682 58.7444 43.8582C57.8044 47.2682 56.8043 50.7382 55.8543 54.2482C56.2243 54.1482 56.5844 53.9882 57.0644 53.9882C58.5344 50.1082 60.1044 46.2182 61.6844 42.4882C64.0944 39.7082 64.4644 35.6082 67.2444 33.0382C67.5044 33.0382 67.7143 33.1382 68.0844 33.2982C69.3944 38.5982 63.6244 47.2082 63.1544 53.5082C63.5244 53.2482 63.9944 53.0382 64.4644 52.8782C65.3044 49.8382 66.3044 46.8382 67.2444 43.7982C68.3444 43.4282 69.3944 43.0682 70.4944 42.6982C70.3944 41.1282 70.3943 39.6582 70.3943 38.2382C71.3343 38.4982 72.4443 38.7082 73.5443 38.9682C73.4443 36.9182 72.7043 35.0882 72.7043 33.0382C83.8343 29.0482 87.8243 34.2482 89.1343 45.1082C91.4043 45.1082 92.9444 44.9882 93.7544 44.7382C95.3244 41.8482 97.6344 41.3282 99.0544 38.9082H100.524C101.254 41.7982 103.564 42.9982 104.404 45.7882H106.344C106.604 44.4782 106.814 43.2682 107.184 42.0582C107.554 41.9582 108.024 41.7982 108.494 41.7982C109.704 45.6782 110.174 46.2582 113.954 47.9882C114.214 47.7282 114.424 47.6182 114.794 47.5182C114.694 42.8982 113.224 35.4482 117.314 32.1382C117.574 32.2382 117.784 32.3982 118.154 32.5082C117.524 39.9082 116.944 47.8882 121.304 54.2882C121.864 54.2882 122.664 53.8883 123.714 53.0783C126.024 54.1783 128.334 55.3883 130.014 57.4383H131.584C131.324 55.4983 130.644 54.1882 129.744 52.3482C123.554 51.4082 124.444 46.8882 123.704 41.4782C119.244 38.5882 120.664 35.5482 125.014 32.2882C130.214 32.1882 133.624 33.9682 138.084 36.0182C137.244 34.4482 136.514 32.9782 135.774 31.5582C131.894 30.3482 128.004 29.2482 124.274 28.1482C117.974 27.6782 114.454 30.4582 113.144 36.3882C112.044 37.4882 110.834 37.6982 109.264 37.8582C105.744 34.3382 112.304 28.3082 112.304 24.5282C107.374 21.2782 105.904 27.2082 101.914 27.7782C98.1844 31.5082 95.6144 25.6282 91.6244 25.6282C91.6244 25.9982 91.7243 26.4682 91.8843 26.9382C94.0343 29.0882 96.2443 34.4482 95.2943 37.3282C94.8243 37.3282 94.3543 37.4282 93.8243 37.5882C88.7343 25.3582 78.0744 22.3682 65.7444 24.1482C61.0244 25.7182 56.2943 27.2982 51.5743 28.9782C49.5243 30.9182 43.7043 35.1682 43.7043 38.0582C46.3843 37.5882 46.8544 34.5382 49.1644 34.5382V34.6382L49.1944 34.6682Z" fill="white"/>
<path fill-rule="evenodd" clip-rule="evenodd" d="M52.1944 52.6682C52.5644 52.4082 53.0344 52.1982 53.5044 52.0382C55.1844 47.4182 56.9144 44.7982 54.7144 40.2782C54.2444 40.2782 53.7744 40.3782 53.2444 40.5382C52.9844 41.2682 53.5044 42.9482 53.5044 45.6282C52.7744 47.9382 51.5644 50.2482 52.1944 52.6582V52.6682Z" fill="white"/>
<path d="M194.234 97.1082C197.444 98.9582 201.024 99.8882 204.974 99.8882C208.924 99.8882 212.244 99.0182 215.314 97.2682C218.384 95.5182 220.834 93.1281 222.664 90.0981C224.494 87.0681 225.514 83.6782 225.714 79.9382V76.8282H203.264V80.3082H221.204C221.004 83.4782 220.174 86.2582 218.734 88.6382C217.294 91.0182 215.374 92.8482 212.994 94.1282C210.614 95.4082 207.944 96.0482 204.974 96.0482C201.804 96.0482 198.954 95.3181 196.434 93.8481C193.914 92.3881 191.914 90.2882 190.454 87.5682C188.994 84.8482 188.254 81.6882 188.254 78.1082C188.254 74.5282 188.984 71.3882 190.454 68.6782C191.914 65.9782 193.914 63.8882 196.434 62.4282C198.954 60.9682 201.804 60.2281 204.974 60.2281C208.354 60.2281 211.284 61.0282 213.794 62.6382C216.294 64.2482 218.154 66.4482 219.374 69.2582H224.374C222.824 65.1882 220.344 62.0182 216.934 59.7382C213.514 57.4582 209.534 56.3182 204.974 56.3182C201.024 56.3182 197.444 57.2481 194.234 59.0981C191.024 60.9481 188.484 63.5281 186.634 66.8481C184.784 70.1681 183.854 73.9182 183.854 78.1082C183.854 82.2982 184.774 86.0482 186.634 89.3682C188.484 92.6882 191.014 95.2682 194.234 97.1182V97.1082Z" fill="#63626B"/>
<path d="M248.044 69.9882H249.204V65.5382C246.394 65.5382 244.024 66.1082 242.094 67.2482C240.164 68.3882 238.724 69.9982 237.794 72.0682V66.1482H233.524V99.4583H237.794V80.8481C237.794 76.9381 238.734 74.1582 240.604 72.4882C242.474 70.8182 244.954 69.9882 248.044 69.9882Z" fill="#63626B"/>
<path d="M268.854 100.008C271.374 100.008 273.654 99.458 275.684 98.358C277.714 97.258 279.224 95.678 280.204 93.598V99.4581H284.474V66.1481H280.204V84.2681C280.204 88.2181 279.244 91.208 277.334 93.238C275.424 95.268 272.854 96.2881 269.644 96.2881C266.434 96.2881 264.044 95.3281 262.234 93.4181C260.424 91.5081 259.524 88.738 259.524 85.118V66.1381H255.314V85.598C255.314 90.278 256.574 93.8481 259.094 96.3081C261.614 98.7681 264.874 99.998 268.854 99.998V100.008Z" fill="#63626B"/>
<path d="M325.504 91.7684C326.864 89.1684 327.544 86.1584 327.544 82.7384C327.544 79.3184 326.864 76.3184 325.504 73.7384C324.144 71.1584 322.254 69.1584 319.834 67.7584C317.414 66.3584 314.694 65.6484 311.684 65.6484C308.514 65.6484 305.774 66.3884 303.474 67.8784C301.174 69.3684 299.494 71.2285 298.444 73.4585V66.1384H294.234V115.188H298.444V92.1284C299.504 94.3684 301.194 96.2285 303.504 97.7085C305.824 99.1985 308.544 99.9385 311.684 99.9385C314.824 99.9385 317.404 99.2285 319.834 97.7985C322.254 96.3785 324.144 94.3584 325.504 91.7584V91.7684ZM317.174 94.6084C315.304 95.6884 313.184 96.2284 310.824 96.2284C308.464 96.2284 306.464 95.6785 304.574 94.5785C302.684 93.4785 301.184 91.9184 300.094 89.8784C298.994 87.8484 298.444 85.4885 298.444 82.7985C298.444 80.1085 298.994 77.7584 300.094 75.7184C301.194 73.6884 302.684 72.1184 304.574 71.0184C306.464 69.9184 308.554 69.3684 310.824 69.3684C313.094 69.3684 315.295 69.8985 317.174 70.9585C319.045 72.0185 320.524 73.5485 321.594 75.5685C322.674 77.5785 323.214 79.9684 323.214 82.7384C323.214 85.5084 322.674 87.8584 321.594 89.9084C320.514 91.9584 319.045 93.5284 317.174 94.6084Z" fill="#63626B"/>
<path d="M341.544 97.848C344.044 99.248 346.864 99.9481 349.994 99.9481C353.124 99.9481 355.974 99.248 358.534 97.848C361.094 96.448 363.114 94.438 364.574 91.838C366.034 89.238 366.774 86.2281 366.774 82.8081C366.774 79.3881 366.054 76.328 364.604 73.748C363.164 71.168 361.164 69.1681 358.624 67.7681C356.084 66.3681 353.244 65.6581 350.114 65.6581C346.984 65.6581 344.154 66.3581 341.634 67.7681C339.114 69.1681 337.114 71.168 335.654 73.748C334.194 76.328 333.454 79.3481 333.454 82.8081C333.454 86.2681 334.174 89.288 335.624 91.868C337.064 94.448 339.044 96.448 341.544 97.848ZM339.474 75.3881C340.594 73.3781 342.084 71.868 343.954 70.868C345.824 69.868 347.854 69.3781 350.054 69.3781C352.254 69.3781 354.284 69.878 356.154 70.868C358.024 71.868 359.534 73.3681 360.664 75.3881C361.804 77.3981 362.374 79.8681 362.374 82.7981C362.374 85.7281 361.794 88.1981 360.634 90.2081C359.474 92.2181 357.954 93.728 356.084 94.728C354.214 95.728 352.174 96.218 349.984 96.218C347.794 96.218 345.764 95.718 343.914 94.728C342.064 93.728 340.574 92.2281 339.464 90.2081C338.344 88.1981 337.784 85.7281 337.784 82.7981C337.784 79.8681 338.344 77.3981 339.464 75.3881H339.474Z" fill="#63626B"/>
<path d="M391.304 99.4583H413.574V95.9182H395.574V79.7482H411.744V76.2181H395.574V60.2882H413.574V56.7482H391.304V99.4583Z" fill="#63626B"/>
<path d="M443.594 95.3981C444.574 93.9981 445.055 92.398 445.055 90.608C445.015 88.658 444.484 87.0881 443.464 85.9081C442.444 84.7281 441.225 83.838 439.805 83.228C438.385 82.618 436.464 81.988 434.064 81.338C432.074 80.768 430.485 80.2481 429.305 79.7781C428.125 79.3081 427.134 78.6581 426.344 77.8281C425.554 76.9981 425.154 75.9281 425.154 74.6281C425.154 73.1281 425.824 71.858 427.164 70.848C428.504 69.828 430.254 69.3181 432.414 69.3181C434.854 69.3181 436.774 69.918 438.184 71.118C439.584 72.318 440.354 73.898 440.474 75.848H444.744C444.584 72.678 443.404 70.1881 441.204 68.3781C439.004 66.5681 436.114 65.6581 432.544 65.6581C430.264 65.6581 428.234 66.0681 426.444 66.8781C424.654 67.6881 423.274 68.7881 422.294 70.1681C421.314 71.5481 420.834 73.0581 420.834 74.6881C420.834 76.8481 421.374 78.558 422.454 79.848C423.534 81.128 424.844 82.098 426.394 82.748C427.944 83.398 429.954 84.0481 432.434 84.6981C434.344 85.1881 435.864 85.6481 436.984 86.0681C438.104 86.4981 439.024 87.0781 439.764 87.8081C440.494 88.5381 440.865 89.478 440.865 90.618C440.865 92.248 440.204 93.6081 438.884 94.7081C437.564 95.8081 435.744 96.358 433.424 96.358C430.784 96.358 428.675 95.778 427.115 94.618C425.545 93.458 424.664 91.9481 424.464 90.0681H420.074C420.354 93.1181 421.714 95.5281 424.134 97.2981C426.554 99.0681 429.674 99.9481 433.504 99.9481C435.784 99.9481 437.794 99.538 439.544 98.728C441.294 97.918 442.654 96.8081 443.634 95.3981H443.594Z" fill="#63626B"/>
<path d="M478.064 88.5984C477.494 91.0384 476.264 92.9385 474.374 94.2985C472.484 95.6585 470.134 96.3384 467.324 96.3384C465.084 96.3384 463.074 95.8285 461.284 94.8085C459.494 93.7885 458.084 92.2684 457.044 90.2284C456.004 88.1984 455.484 85.7185 455.484 82.7885C455.484 79.8585 456.004 77.3884 457.044 75.3784C458.084 73.3684 459.494 71.8485 461.284 70.8285C463.074 69.8085 465.084 69.2985 467.324 69.2985C470.134 69.2985 472.484 69.9784 474.374 71.3384C476.264 72.6984 477.494 74.5784 478.064 76.9784H482.644C481.874 73.4784 480.154 70.7185 477.484 68.6785C474.814 66.6485 471.434 65.6284 467.324 65.6284C464.194 65.6284 461.404 66.3284 458.964 67.7384C456.524 69.1384 454.614 71.1384 453.224 73.7184C451.844 76.2984 451.154 79.3184 451.154 82.7784C451.154 86.2384 451.844 89.2584 453.224 91.8384C454.604 94.4184 456.514 96.4185 458.964 97.8185C461.404 99.2185 464.194 99.9185 467.324 99.9185C471.394 99.9185 474.764 98.8785 477.454 96.8085C480.134 94.7385 481.864 91.9885 482.644 88.5685H478.064V88.5984Z" fill="#63626B"/>
<path d="M513.724 67.7681C511.184 66.3681 508.344 65.6581 505.214 65.6581C502.084 65.6581 499.254 66.3581 496.734 67.7681C494.214 69.1681 492.214 71.168 490.754 73.748C489.294 76.328 488.554 79.3481 488.554 82.8081C488.554 86.2681 489.274 89.288 490.724 91.868C492.164 94.448 494.144 96.448 496.644 97.848C499.144 99.248 501.964 99.9481 505.094 99.9481C508.224 99.9481 511.074 99.248 513.634 97.848C516.194 96.448 518.214 94.438 519.674 91.838C521.134 89.238 521.874 86.2281 521.874 82.8081C521.874 79.3881 521.154 76.328 519.704 73.748C518.264 71.168 516.264 69.1681 513.724 67.7681ZM515.734 90.218C514.574 92.228 513.054 93.738 511.184 94.738C509.314 95.738 507.274 96.228 505.084 96.228C502.894 96.228 500.864 95.728 499.014 94.738C497.164 93.738 495.674 92.238 494.564 90.218C493.444 88.208 492.884 85.7381 492.884 82.8081C492.884 79.8781 493.444 77.4081 494.564 75.3981C495.684 73.3881 497.174 71.8781 499.044 70.8781C500.914 69.8781 502.944 69.3881 505.144 69.3881C507.344 69.3881 509.374 69.8881 511.244 70.8781C513.114 71.8781 514.624 73.3781 515.754 75.3981C516.894 77.4081 517.464 79.8781 517.464 82.8081C517.464 85.7381 516.884 88.208 515.724 90.218H515.734Z" fill="#63626B"/>
<path d="M530.904 90.4282C530.904 93.6382 531.634 95.9481 533.104 97.3481C534.564 98.7481 536.804 99.4583 539.814 99.4583H544.394V95.7982H540.484C538.534 95.7982 537.164 95.4082 536.394 94.6382C535.624 93.8682 535.234 92.4582 535.234 90.4282V69.7482H544.384V66.1482H535.234V57.7882H530.904V66.1482H526.264V69.7482H530.904V90.4282Z" fill="#63626B"/>
<path d="M557.374 97.848C559.854 99.248 562.664 99.9481 565.794 99.9481C569.824 99.9481 573.164 98.918 575.834 96.868C578.494 94.818 580.234 92.1581 581.054 88.9081H576.534C575.924 91.1881 574.674 92.998 572.784 94.338C570.894 95.678 568.564 96.348 565.794 96.348C563.674 96.348 561.724 95.888 559.934 94.978C558.144 94.058 556.704 92.7081 555.604 90.9181C554.504 89.1281 553.894 86.9781 553.774 84.4481H581.414C581.494 83.6781 581.534 82.558 581.534 81.088C581.534 78.238 580.894 75.6481 579.614 73.3081C578.334 70.9681 576.504 69.108 574.124 67.728C571.744 66.348 568.964 65.6581 565.794 65.6581C562.624 65.6581 559.794 66.348 557.314 67.728C554.834 69.108 552.904 71.1081 551.514 73.7081C550.134 76.3081 549.444 79.3381 549.444 82.7981C549.444 86.2581 550.144 89.278 551.554 91.858C552.954 94.438 554.894 96.438 557.384 97.838L557.374 97.848ZM557.504 72.368C559.744 70.338 562.444 69.3181 565.614 69.3181C567.724 69.3181 569.684 69.7681 571.474 70.6581C573.264 71.5581 574.674 72.8781 575.714 74.6281C576.754 76.3781 577.244 78.488 577.204 80.978H553.774C554.014 77.278 555.254 74.4081 557.494 72.3781L557.504 72.368Z" fill="#63626B"/>
<path d="M593.624 66.1484H589.354V99.4585H593.624V66.1484Z" fill="#63626B"/>
<path d="M591.484 59.8582C592.334 59.8582 593.074 59.5482 593.684 58.9382C594.294 58.3282 594.604 57.5782 594.604 56.6782C594.604 55.7782 594.294 55.0382 593.684 54.4482C593.074 53.8582 592.344 53.5682 591.484 53.5682C590.624 53.5682 589.894 53.8682 589.284 54.4482C588.674 55.0382 588.365 55.7782 588.365 56.6782C588.365 57.5782 588.674 58.3282 589.284 58.9382C589.894 59.5482 590.624 59.8582 591.484 59.8582Z" fill="#63626B"/>
<path d="M607.594 80.8481C607.594 76.9381 608.534 74.1582 610.404 72.4882C612.274 70.8182 614.754 69.9882 617.844 69.9882H619.004V65.5382C616.194 65.5382 613.824 66.1082 611.894 67.2482C609.964 68.3882 608.524 69.9982 607.594 72.0682V66.1482H603.324V99.4583H607.594V80.8481Z" fill="#63626B"/>
<path d="M631.544 97.848C634.044 99.248 636.864 99.9481 639.994 99.9481C643.124 99.9481 645.974 99.248 648.534 97.848C651.094 96.448 653.114 94.438 654.574 91.838C656.034 89.238 656.774 86.2281 656.774 82.8081C656.774 79.3881 656.054 76.328 654.604 73.748C653.164 71.168 651.164 69.1681 648.624 67.7681C646.084 66.3681 643.244 65.6581 640.114 65.6581C636.984 65.6581 634.154 66.3581 631.634 67.7681C629.114 69.1681 627.114 71.168 625.654 73.748C624.194 76.328 623.454 79.3481 623.454 82.8081C623.454 86.2681 624.174 89.288 625.624 91.868C627.064 94.448 629.044 96.448 631.544 97.848ZM629.464 75.3881C630.584 73.3781 632.074 71.868 633.944 70.868C635.814 69.868 637.844 69.3781 640.044 69.3781C642.244 69.3781 644.274 69.878 646.144 70.868C648.014 71.868 649.524 73.3681 650.654 75.3881C651.794 77.3981 652.364 79.8681 652.364 82.7981C652.364 85.7281 651.784 88.1981 650.624 90.2081C649.464 92.2181 647.944 93.728 646.074 94.728C644.204 95.728 642.164 96.218 639.974 96.218C637.784 96.218 635.754 95.718 633.904 94.728C632.054 93.728 630.564 92.2281 629.454 90.2081C628.334 88.1981 627.774 85.7281 627.774 82.7981C627.774 79.8681 628.334 77.3981 629.454 75.3881H629.464Z" fill="#63626B"/>
<path d="M204.414 128.758L181.494 185.258H192.874C196.024 177.348 204.904 176.298 215.314 176.298H222.494L226.124 185.258H237.504L214.584 128.758H204.414ZM215.314 166.618C208.934 166.618 203.364 167.668 198.604 171.138L209.504 144.178L218.544 166.618H215.314Z" fill="#63626B"/>
<path d="M259.594 176.688C258.204 176.748 256.614 176.808 255.274 176.688C254.034 176.578 252.994 176.318 252.264 175.938C251.504 175.538 250.974 175.038 250.474 174.258C250.234 173.908 250.024 173.438 249.804 172.948L249.784 172.908C249.544 172.258 249.374 171.708 249.244 171.158C248.954 169.998 248.744 168.638 248.624 167.108C248.534 165.818 248.504 164.408 248.534 162.668L248.974 141.638C249.174 135.148 249.334 128.648 249.504 122.008V121.488L240.514 121.098L240.494 121.618C240.184 128.568 239.904 134.848 239.654 141.298L239.094 162.438C239.054 165.838 239.144 169.518 240.144 173.468C240.734 175.738 241.564 177.668 242.694 179.388C243.444 180.498 244.224 181.398 245.054 182.138C245.974 182.958 247.034 183.678 248.134 184.218C250.554 185.418 252.984 185.698 254.614 185.808C255.204 185.848 255.784 185.858 256.344 185.858C257.704 185.858 258.964 185.778 260.114 185.698L260.634 185.668L260.124 176.668L259.604 176.688H259.594Z" fill="#63626B"/>
<path d="M288.514 140.388C281.254 140.388 275.764 144.428 272.934 149.508V124.088H262.764V185.268H272.934V177.358C275.764 182.438 281.244 186.478 288.514 186.478C315.954 186.478 315.954 140.388 288.514 140.388ZM285.934 177.268C277.054 177.268 272.944 170.168 272.944 163.388C272.944 156.608 277.064 149.588 285.934 149.588C302.564 149.588 302.564 177.268 285.934 177.268Z" fill="#63626B"/>
<path d="M333.794 177.028C330.644 177.028 327.904 175.498 326.044 172.668L344.284 164.918C350.744 162.088 352.034 158.298 352.034 153.538C352.034 145.468 345.414 139.578 333.714 140.378C323.864 141.108 313.134 147.808 313.134 163.458C313.134 176.698 321.124 186.458 334.204 186.458C346.064 186.458 352.844 180.888 352.844 170.078H342.274C342.274 174.998 338.564 177.018 333.804 177.018L333.794 177.028ZM323.704 163.468C323.704 153.378 329.514 149.508 334.604 149.508C338.474 149.508 341.864 151.768 341.864 155.238C341.864 157.338 340.494 158.148 338.794 158.868L323.784 165.328C323.704 164.678 323.704 164.118 323.704 163.468Z" fill="#63626B"/>
<path d="M358.494 155.238V185.258H368.664V158.458C368.664 153.538 370.354 151.278 375.844 151.278H388.194V141.678H372.054C363.984 141.678 358.494 147.168 358.494 155.238Z" fill="#63626B"/>
<path d="M402.154 171.378V150.478H411.034V141.678H402.154V133.368H391.984V174.688C391.984 182.678 397.954 185.258 403.444 185.258H412.324V176.058H406.834C404.094 176.058 402.154 174.448 402.154 171.378Z" fill="#63626B"/>
<path d="M444.534 144.098C444.534 139.978 449.054 137.638 455.104 137.638C461.484 137.638 466.644 140.218 466.644 145.788H476.734C476.734 133.758 468.424 127.548 455.024 127.548C443.644 127.548 434.524 133.278 434.524 145.388C434.524 166.698 467.694 158.868 467.694 170.728C467.694 174.678 462.604 176.378 456.634 176.378C450.664 176.378 444.364 173.958 444.364 168.628H434.194C434.194 180.978 445.734 186.468 456.634 186.468C468.584 186.468 477.614 182.188 477.614 170.728C477.614 148.208 444.524 157.328 444.524 144.088L444.534 144.098Z" fill="#63626B"/>
<path d="M502.564 150.388C507.654 150.388 511.044 152.408 511.044 157.328H521.614C521.614 146.508 513.864 140.378 502.974 140.378C489.574 140.378 481.904 150.148 481.904 163.378C481.904 176.608 489.574 186.458 502.974 186.458C513.874 186.458 521.614 180.328 521.614 169.508H511.044C511.044 174.428 507.654 176.448 502.564 176.448C496.264 176.448 492.474 172.088 492.474 163.368C492.474 154.648 496.264 150.378 502.564 150.378V150.388Z" fill="#63626B"/>
<path d="M553.084 140.388C546.874 140.388 541.134 144.258 537.834 150.638V124.088H527.664V185.268H537.834V162.908C537.834 154.348 543.644 149.508 549.534 149.508C554.864 149.508 559.784 153.218 559.784 160.238V185.258H569.874V158.458C569.874 146.428 561.884 140.378 553.084 140.378V140.388Z" fill="#63626B"/>
<path d="M622.424 141.318L622.314 165.188C622.284 167.038 622.105 168.678 621.805 170.038C621.485 171.468 620.974 172.678 620.324 173.528C619.684 174.378 618.974 174.888 617.984 175.218C617.834 175.248 617.694 175.298 617.544 175.338C617.394 175.378 617.254 175.428 617.104 175.458L616.134 175.618C615.724 175.658 615.184 175.618 614.634 175.508C613.464 175.278 612.074 174.718 610.734 173.938C610.034 173.518 609.344 173.048 608.664 172.518L608.734 172.418C608.904 172.118 609.084 171.808 609.264 171.508C609.654 170.858 610.054 170.178 610.404 169.478L611.474 167.218C611.554 167.038 611.624 166.858 611.694 166.668L611.784 166.428C612.594 164.408 613.254 162.268 613.734 160.078L614.214 157.698C614.254 157.508 614.285 157.298 614.305 157.078C614.315 156.988 614.324 156.888 614.344 156.788L614.454 155.888C614.474 155.668 614.484 155.438 614.494 155.218V154.978C614.554 154.338 614.544 153.688 614.524 153.078C614.524 152.578 614.464 152.068 614.404 151.568L614.344 151.058L614.264 150.648C614.164 150.128 614.074 149.578 613.894 149.038C613.454 147.488 612.794 146.098 611.924 144.908C610.895 143.478 609.554 142.308 608.044 141.538C606.434 140.698 604.554 140.288 602.754 140.398C601.024 140.488 599.304 141.008 597.784 141.918C596.454 142.708 595.264 143.768 594.264 145.078C593.414 146.158 592.734 147.388 592.174 148.808C591.644 150.098 591.364 151.388 591.134 152.628L591.104 152.848C591.034 153.378 590.954 153.918 590.914 154.478C590.914 154.658 590.894 154.838 590.884 155.018C590.864 155.428 590.834 155.858 590.834 156.268C590.834 157.538 590.894 158.688 591.014 159.778C591.274 162.088 591.824 164.388 592.654 166.598C593.394 168.608 594.424 170.628 595.734 172.618C595.174 173.038 594.584 173.438 593.994 173.798L593.014 174.338L592.004 174.758L590.824 175.138C590.734 175.168 590.634 175.198 590.584 175.218L590.074 175.308C588.754 175.548 587.704 175.498 586.664 175.168C586.524 175.118 586.384 175.068 586.244 175.028C586.224 175.028 586.184 174.998 586.144 174.978C586.094 174.948 586.034 174.918 585.974 174.888C585.924 174.858 585.865 174.828 585.805 174.808C585.785 174.808 585.754 174.788 585.734 174.778C585.624 174.698 585.514 174.618 585.354 174.518C585.334 174.498 585.314 174.478 585.284 174.458L585.224 174.398C585.174 174.348 585.114 174.298 585.064 174.248C585.044 174.228 585.014 174.208 584.994 174.188C584.924 174.098 584.854 174.008 584.784 173.928C584.704 173.838 584.644 173.768 584.594 173.678L584.564 173.618C583.994 172.748 583.554 171.458 583.314 169.968C583.074 168.568 582.954 166.908 582.934 164.908V163.548L583.584 141.168L575.244 140.778L573.454 163.378L573.434 164.938C573.434 166.688 573.494 169.018 573.904 171.538C574.374 174.428 575.225 176.748 576.555 178.808C576.845 179.308 577.224 179.768 577.594 180.208C577.704 180.338 577.804 180.458 577.934 180.608C578.134 180.828 578.354 181.028 578.574 181.238L578.824 181.468C579.084 181.708 579.354 181.968 579.664 182.168C579.964 182.388 580.274 182.598 580.584 182.808C580.824 182.978 581.074 183.108 581.314 183.228C581.404 183.278 581.505 183.328 581.615 183.388C581.705 183.428 581.794 183.478 581.884 183.528C582.124 183.648 582.374 183.778 582.644 183.878L583.615 184.228C584.145 184.428 584.644 184.538 585.124 184.638C585.294 184.678 585.464 184.708 585.634 184.748C585.944 184.828 586.274 184.878 586.714 184.908L588.274 185.038C588.394 185.038 588.514 185.038 588.634 185.038L589.764 184.988C590.404 184.978 591.004 184.868 591.574 184.768L592.724 184.558C592.944 184.508 593.155 184.438 593.365 184.378L595.014 183.878L597.154 182.978L598.734 182.118C599.934 181.418 601.084 180.618 602.154 179.748C603.324 180.688 604.554 181.548 605.824 182.288C608.224 183.658 610.424 184.518 612.764 184.978C613.774 185.178 614.744 185.268 615.694 185.268C616.164 185.268 616.634 185.248 617.104 185.198C617.694 185.118 618.244 185.018 618.814 184.918L619.034 184.878C619.524 184.778 620.024 184.628 620.504 184.488C620.664 184.438 620.824 184.388 621.004 184.338C621.504 184.178 622.004 183.948 622.484 183.728C622.634 183.658 622.794 183.588 622.984 183.508C623.654 183.148 624.294 182.738 624.834 182.388L624.884 182.358C625.024 182.248 625.165 182.138 625.305 182.018C625.725 181.688 626.165 181.338 626.555 180.928L626.784 180.688C627.204 180.248 627.634 179.798 627.964 179.298C629.454 177.298 630.484 174.958 631.124 172.128C631.564 170.078 631.794 167.928 631.844 165.358V164.558L630.754 141.318H622.414H622.424ZM604.884 154.468L604.854 154.978L604.784 155.538C604.774 155.618 604.764 155.698 604.754 155.778C604.744 155.878 604.734 155.978 604.704 156.098L604.324 158.008C603.954 159.688 603.464 161.308 602.844 162.848L602.764 163.068C602.724 163.188 602.684 163.308 602.634 163.408L602.204 164.318C602.034 163.948 601.884 163.578 601.744 163.208C601.194 161.738 600.824 160.208 600.644 158.678C600.564 157.978 600.514 157.218 600.514 156.338C600.514 156.108 600.514 155.898 600.534 155.678C600.534 155.518 600.555 155.368 600.555 155.238C600.575 155.008 600.604 154.788 600.624 154.568C600.644 154.428 600.664 154.288 600.674 154.188C600.914 152.798 601.354 151.658 601.914 150.978C602.464 150.248 603.004 150.048 603.234 150.048H603.254C603.504 150.048 603.724 150.098 604.104 150.588C604.304 150.848 604.484 151.238 604.604 151.708L604.624 151.758C604.664 151.868 604.694 152.028 604.724 152.198C604.744 152.308 604.764 152.408 604.784 152.518C604.784 152.638 604.804 152.768 604.824 152.888C604.844 153.078 604.865 153.248 604.865 153.428V153.578C604.875 153.878 604.884 154.158 604.854 154.478L604.884 154.468Z" fill="#63626B"/>
<path d="M656.134 177.028C652.984 177.028 650.244 175.498 648.384 172.668L666.624 164.918C673.084 162.088 674.374 158.298 674.374 153.538C674.374 145.468 667.755 139.578 656.055 140.378C646.205 141.108 635.474 147.808 635.474 163.458C635.474 176.698 643.464 186.458 656.544 186.458C668.404 186.458 675.185 180.888 675.185 170.078H664.614C664.614 174.998 660.904 177.018 656.144 177.018L656.134 177.028ZM646.044 163.468C646.044 153.378 651.854 149.508 656.944 149.508C660.814 149.508 664.205 151.768 664.205 155.238C664.205 157.338 662.834 158.148 661.134 158.868L646.124 165.328C646.044 164.678 646.044 164.118 646.044 163.468Z" fill="#63626B"/>
<path d="M686.314 124.078C683.084 124.078 680.504 126.738 680.504 129.968C680.504 133.198 683.084 135.778 686.314 135.778C689.544 135.778 692.124 133.118 692.124 129.968C692.124 126.818 689.544 124.078 686.314 124.078Z" fill="#63626B"/>
<path d="M691.404 141.678H681.234V185.258H691.404V141.678Z" fill="#63626B"/>
<path d="M708.834 171.378V150.478H717.714V141.678H708.834V133.368H698.664V174.688C698.664 182.678 704.634 185.258 710.124 185.258H719.004V176.058H713.514C710.774 176.058 708.834 174.448 708.834 171.378Z" fill="#63626B"/>
<path d="M758.554 148.538V141.678H722.794V151.278H743.544L721.994 178.318V185.258H758.954V175.658H737.004L758.554 148.538Z" fill="#63626B"/>
<path d="M782.524 177.028C779.374 177.028 776.634 175.498 774.774 172.668L793.014 164.918C799.474 162.088 800.764 158.298 800.764 153.538C800.764 145.468 794.144 139.578 782.444 140.378C772.594 141.108 761.864 147.808 761.864 163.458C761.864 176.698 769.854 186.458 782.934 186.458C794.794 186.458 801.574 180.888 801.574 170.078H791.004C791.004 174.998 787.294 177.018 782.534 177.018L782.524 177.028ZM772.434 163.468C772.434 153.378 778.244 149.508 783.334 149.508C787.204 149.508 790.594 151.768 790.594 155.238C790.594 157.338 789.224 158.148 787.524 158.868L772.514 165.328C772.434 164.678 772.434 164.118 772.434 163.468Z" fill="#63626B"/>
<path d="M820.784 141.678C812.714 141.678 807.224 147.168 807.224 155.238V185.258H817.394V158.458C817.394 153.538 819.084 151.278 824.574 151.278H836.924V141.678H820.784Z" fill="#63626B"/>
</svg>
