<svg width="256" height="256" viewBox="0 0 256 256" fill="none" xmlns="http://www.w3.org/2000/svg">
<rect width="256" height="256" fill="black"/>
<path fill-rule="evenodd" clip-rule="evenodd" d="M141.843 246.599C139.36 245.869 139.36 245.869 129.283 244.554C129.137 244.116 128.991 243.824 128.845 243.532C134.979 237.398 141.112 222.356 148.415 220.603C151.481 223.67 156.301 242.51 153.964 244.846C149.875 245.431 145.786 246.015 141.843 246.599Z" fill="white"/>
<path fill-rule="evenodd" clip-rule="evenodd" d="M113.072 245.139C111.466 243.532 111.466 242.072 110.882 239.735C108.983 236.084 108.983 236.084 106.208 232.287C102.411 230.242 98.6141 228.198 94.817 226.299C85.3242 218.121 75.6854 210.38 68.5293 200.157C66.1927 193.44 62.3956 182.778 65.1703 175.768C65.7545 175.768 66.3386 175.768 66.9228 175.768C75.8315 188.766 83.5718 195.338 97.0076 204.393C104.602 208.92 104.602 208.92 106.354 210.527C110.444 218.121 115.701 225.423 118.914 233.163C119.79 233.309 120.667 233.455 121.543 233.747C121.543 239.589 123.879 239.735 126.216 244.116C121.835 244.408 117.454 244.701 113.072 245.139Z" fill="white"/>
<path fill-rule="evenodd" clip-rule="evenodd" d="M152.942 193.001C146.662 191.687 141.697 190.665 137.461 185.553C127.822 184.677 128.553 185.115 128.115 176.06C131.62 176.498 136.001 176.937 137.461 180.88C142.573 181.902 140.382 177.813 144.764 178.689C151.481 176.644 151.481 176.644 155.425 176.206C163.603 180.588 168.86 176.644 177.039 177.375C177.477 180.588 176.601 182.632 175.432 185.699C174.994 185.699 174.702 185.699 174.41 185.699C174.41 185.991 174.41 186.283 174.41 186.721C173.972 186.721 173.68 186.721 173.388 186.721C170.905 192.709 158.199 192.855 152.942 193.001Z" fill="white"/>
<path fill-rule="evenodd" clip-rule="evenodd" d="M122.273 185.261C121.105 182.778 121.105 181.318 121.105 178.251C121.397 178.251 121.689 178.251 121.981 178.251C123.149 180.588 124.025 182.632 124.318 185.261C123.587 185.261 122.857 185.261 122.273 185.261Z" fill="white"/>
<path fill-rule="evenodd" clip-rule="evenodd" d="M115.555 183.801C114.095 182.632 112.634 181.464 111.32 180.442C111.32 177.521 112.634 177.959 115.117 178.251C116.139 181.172 116.139 181.172 116.139 183.509C115.847 183.509 115.701 183.655 115.555 183.801Z" fill="white"/>
<path fill-rule="evenodd" clip-rule="evenodd" d="M162.289 171.679C156.885 170.949 151.481 170.219 146.224 169.635C147.1 163.647 155.424 163.501 160.244 163.501C164.917 165.837 165.355 165.545 165.209 171.241C164.187 171.387 163.165 171.533 162.289 171.679Z" fill="white"/>
<path fill-rule="evenodd" clip-rule="evenodd" d="M182.15 169.197C181.42 168.028 180.69 167.006 180.106 165.984C178.207 165.984 177.915 166.568 175.14 166.86C174.118 165.984 173.096 162.771 172.366 162.187C169.445 161.894 164.333 159.704 161.85 157.951C159.368 153.716 157.615 156.783 154.987 159.12C152.066 159.12 150.605 159.12 147.976 157.659C146.808 158.243 145.64 158.974 144.617 159.704C144.033 159.412 143.449 159.266 143.011 159.12C143.011 156.491 145.055 155.176 144.617 152.402C140.09 152.402 139.36 158.974 134.687 158.097C134.54 154.592 135.125 153.57 135.271 151.817C132.496 150.941 131.036 153.132 129.283 154.738C124.756 154.738 120.082 154.008 115.993 156.053C115.993 155.615 116.139 155.176 116.285 154.884C122.711 152.694 130.013 149.919 137.023 149.919C137.461 150.503 137.899 151.087 138.338 151.817C139.944 151.817 140.966 150.941 142.135 149.919C144.033 149.481 146.078 149.043 148.122 148.751C147.976 150.795 147.83 152.84 147.684 154.884C149.875 154.884 151.335 151.233 152.504 149.481C158.93 149.043 166.086 149.043 171.489 145.392C173.242 145.538 174.994 145.684 176.747 145.976C176.893 145.392 177.185 144.953 177.477 144.515C175.14 139.696 168.86 140.718 164.333 140.572C162.435 139.258 160.536 137.943 158.638 136.775C160.39 122.755 157.177 108.005 160.536 94.4227C160.39 92.8162 160.244 91.2097 160.098 89.6034C159.514 89.4573 158.93 89.4574 158.492 89.4574C155.571 98.2199 155.571 98.2199 154.987 98.804C151.627 98.804 152.942 96.4673 153.088 94.1307C152.504 93.6925 151.92 93.2544 151.335 92.9623C138.63 92.9623 126.508 91.5019 113.802 93.4005C113.656 92.6702 113.656 91.9401 113.656 91.3558C114.825 89.8954 115.993 88.4351 117.308 87.1207C126.362 85.222 135.855 85.8063 144.764 88.1429C145.202 87.9969 145.786 87.8508 146.37 87.7048C146.37 87.2667 146.37 86.8286 146.37 86.3904C141.697 83.3236 135.563 83.0314 130.305 82.1552C127.384 77.7739 127.969 71.6401 127.384 66.5286C124.464 56.4516 112.488 58.4963 113.364 48.2733C115.555 46.5207 117.746 44.7683 119.936 43.1618C126.654 43.4539 132.642 42.8697 139.36 42.8697C143.449 44.3302 147.538 45.7906 151.773 47.2511C156.155 44.9142 156.301 48.2733 159.806 50.61C164.917 51.3401 167.254 52.9466 171.489 55.8675C178.061 59.0804 178.061 59.0804 179.083 60.1027C181.566 65.2142 184.195 70.3257 186.824 75.5833C187.408 78.6501 187.992 81.7171 188.576 84.784C199.237 89.1652 199.237 90.3335 193.98 99.6803C187.262 99.6803 180.252 97.3437 173.68 95.8832C172.073 96.3213 171.489 97.7817 170.905 99.3882C170.175 99.3882 169.445 99.5343 168.715 99.6803C167.838 98.6579 166.816 95.0069 165.063 92.0861C164.625 92.2322 164.187 92.5241 163.895 92.8163C164.625 99.9723 165.355 105.668 168.276 112.24C176.017 112.532 181.128 113.554 187.554 117.351C190.183 124.8 189.745 133.27 189.745 141.01C187.846 146.56 187.846 146.56 187.262 149.919C186.532 150.357 183.319 149.919 182.443 150.211C183.027 153.716 185.948 155.03 189.16 156.783C190.183 159.266 190.183 159.266 190.621 163.063C189.014 164.669 186.97 163.647 184.925 163.647C183.465 165.107 183.757 166.422 183.319 168.466C182.881 168.612 182.443 168.904 182.15 169.197Z" fill="white"/>
<path fill-rule="evenodd" clip-rule="evenodd" d="M136.001 165.253C135.855 164.961 135.709 164.669 135.563 164.523C136.439 163.501 137.315 162.478 138.192 161.602C138.63 161.748 139.068 161.894 139.506 162.04C139.506 162.478 139.506 163.063 139.506 163.647C138.338 164.085 137.169 164.669 136.001 165.253Z" fill="white"/>
<path fill-rule="evenodd" clip-rule="evenodd" d="M105.332 155.03C104.748 154.154 104.31 153.278 103.871 152.402C104.164 151.671 104.602 151.087 105.04 150.503C107.084 150.503 109.275 151.379 109.275 153.716C107.961 154.592 106.938 154.884 105.332 155.03Z" fill="white"/>
<path fill-rule="evenodd" clip-rule="evenodd" d="M63.8559 145.83C53.4869 138.966 41.3653 110.487 52.3186 99.5343C52.0265 101.287 52.0265 101.287 49.9819 104.792C49.9819 115.453 51.7343 125.238 57.138 134.292C57.8681 134.292 58.5984 134.292 59.3286 134.438C59.7668 133.562 59.7668 133.562 59.0365 130.933C53.4869 123.631 54.2171 118.228 57.138 109.611C57.7221 109.611 58.4524 109.611 59.1825 109.611C59.7668 110.633 60.3509 111.802 61.0812 112.97C61.9574 112.386 62.9796 111.802 64.0019 111.218C64.0019 111.656 64.0019 112.24 64.0019 112.824C54.2171 116.913 54.6553 120.71 60.4969 129.473C67.2149 133.562 72.3264 135.607 72.3264 143.639C70.2817 145.684 66.7768 145.538 63.8559 145.83Z" fill="white"/>
<path fill-rule="evenodd" clip-rule="evenodd" d="M123.734 142.471C120.667 139.988 117.6 137.651 114.533 135.315C110.736 134.146 107.961 132.978 104.602 130.934C104.456 126.552 103.434 117.936 106.062 114.431C112.488 114.431 124.025 125.238 131.182 120.418C131.182 119.834 131.182 119.396 131.182 118.958C128.407 118.228 119.79 117.497 119.79 113.846C124.61 114.723 131.912 117.644 136.147 114.431C136.001 113.992 135.855 113.7 135.855 113.408C131.766 112.824 122.711 113.262 122.127 108.151C125.34 106.398 135.125 110.341 138.046 112.094C137.607 116.913 137.023 117.936 137.461 118.812C140.674 117.79 140.674 117.79 142.427 117.79C146.078 125.092 137.169 133.854 132.788 138.528C128.699 140.718 128.699 140.718 123.734 142.471Z" fill="white"/>
<path fill-rule="evenodd" clip-rule="evenodd" d="M180.69 125.384C178.353 124.8 166.378 119.542 171.343 115.891C172.804 115.891 174.41 115.891 176.017 115.891C178.645 119.25 178.646 119.25 180.106 120.126C185.509 120.71 186.386 123.777 180.69 125.384Z" fill="white"/>
<path fill-rule="evenodd" clip-rule="evenodd" d="M61.5192 124.361C61.3732 123.631 61.2273 122.901 61.2273 122.171C62.6876 121.148 62.6876 121.148 63.1258 121.294C63.1258 122.025 63.1258 122.755 63.1258 123.631C62.5415 123.777 61.9574 124.069 61.5192 124.361Z" fill="white"/>
<path fill-rule="evenodd" clip-rule="evenodd" d="M188.576 113.7C187.554 111.802 185.801 109.903 185.801 107.566C187.262 107.566 188.722 107.566 190.183 107.566C190.621 108.151 190.621 108.151 189.599 113.408C189.16 113.408 188.868 113.554 188.576 113.7Z" fill="white"/>
<path fill-rule="evenodd" clip-rule="evenodd" d="M128.699 103.039C127.384 101.725 127.384 101.725 127.384 100.849C128.699 99.5342 134.979 100.264 137.023 100.264C137.169 100.703 137.315 101.141 137.461 101.579C131.62 102.163 131.62 102.163 128.699 103.039Z" fill="white"/>
<path fill-rule="evenodd" clip-rule="evenodd" d="M59.0365 100.118C57.5761 98.6579 56.2619 98.512 54.2172 98.366C57.4302 96.7594 58.4525 97.0515 61.6653 98.95C61.6653 99.2421 61.8114 99.6803 61.9574 100.118C60.9352 100.118 59.9129 100.118 59.0365 100.118Z" fill="white"/>
<path fill-rule="evenodd" clip-rule="evenodd" d="M199.237 82.5932C197.631 81.2788 196.463 80.5487 195.878 78.65C198.799 78.65 199.237 80.1105 199.237 82.5932Z" fill="white"/>
<path fill-rule="evenodd" clip-rule="evenodd" d="M206.102 63.0235C203.035 58.6421 199.53 54.8452 197.047 50.1717C196.901 47.5429 197.485 46.5207 197.485 44.9142C195.44 41.5552 193.104 39.3646 191.643 36.2977C191.643 31.7704 191.643 31.7704 190.913 29.4337C192.958 28.8495 193.396 28.4115 194.272 26.6589C200.844 33.2308 203.473 40.2408 206.832 49.0034C207.124 53.6767 207.562 58.3502 208 63.0235C207.27 63.0235 206.686 63.0235 206.102 63.0235Z" fill="white"/>
<path fill-rule="evenodd" clip-rule="evenodd" d="M183.173 50.902C181.128 48.4193 178.353 46.9588 175.579 45.6444C173.68 47.1049 173.68 47.1049 172.658 47.1049C167.4 39.3646 168.13 29.7258 168.86 20.8172C168.422 20.6711 168.13 20.5251 167.838 20.379C162.873 24.3222 164.625 33.3769 164.771 38.9264C164.333 39.0725 164.041 39.2185 163.749 39.5107C159.222 37.466 158.638 36.7358 157.177 32.0625C156.593 32.0625 156.009 32.2086 155.571 32.3546C155.132 33.8149 154.841 35.2754 154.548 36.8819C153.672 36.8819 152.942 36.8819 152.212 36.8819C151.189 33.5229 148.415 32.0625 147.538 28.5575C146.954 28.5575 146.37 28.5575 145.786 28.5575C144.033 31.4783 141.258 32.0625 139.36 35.5675C137.9 36.0057 137.899 36.0057 133.81 36.0057C132.204 22.8618 127.385 16.5819 113.948 21.4013C113.948 23.884 114.825 26.0748 114.971 28.5575C113.656 28.2654 112.342 27.9733 111.174 27.6811C111.174 29.4337 111.174 31.1861 111.32 33.0848C110.005 33.5229 108.691 33.961 107.377 34.3991C106.208 38.0502 105.04 41.7013 104.018 45.3523C103.433 45.4984 102.849 45.7905 102.411 46.0826C102.995 38.4884 110.005 28.1193 108.399 21.6934C107.961 21.5474 107.669 21.4013 107.377 21.4013C104.018 24.4683 103.58 29.4337 100.659 32.7926C98.7602 37.3201 96.8615 41.9934 95.1089 46.6667C94.5249 46.6667 94.0867 46.8128 93.6487 46.9588C94.817 42.7235 95.9853 38.4884 97.1536 34.3991C98.9061 31.0402 103.872 23.2999 101.389 19.5028C100.805 19.5028 100.367 19.5028 99.9285 19.5028C97.0076 22.4236 90.5817 24.6143 86.3464 25.0524C86.0545 24.4683 85.7623 23.884 85.6163 23.2999C82.8414 23.2999 82.2573 26.951 79.0443 27.5351C79.0443 24.0301 86.0544 18.9186 88.5372 16.5819C94.2327 14.5374 99.9285 12.6387 105.624 10.7403C120.52 8.54967 133.372 12.2007 139.506 26.951C140.09 26.8049 140.674 26.6589 141.258 26.6589C142.427 23.1539 139.798 16.728 137.169 14.0992C137.023 13.5151 136.877 12.9309 136.877 12.4927C141.697 12.4927 144.764 19.6489 149.291 15.1215C154.11 14.3913 155.863 7.23528 161.851 11.1783C161.851 15.7057 153.964 23.0078 158.199 27.2431C160.098 27.0971 161.558 26.8049 162.873 25.4905C164.479 18.3345 168.715 14.9754 176.309 15.5597C180.836 16.874 185.509 18.1884 190.183 19.6489C191.059 21.4013 191.935 23.1539 192.958 25.0524C187.554 22.5696 183.465 20.379 177.185 20.5251C171.927 24.4683 170.175 28.1193 175.579 31.6243C176.455 38.1963 175.432 43.5999 182.881 44.7682C183.903 46.9588 184.779 48.5653 185.071 50.902C184.341 50.902 183.757 50.902 183.173 50.902Z" fill="white"/>
<path fill-rule="evenodd" clip-rule="evenodd" d="M89.2674 45.0602C88.5373 42.1394 89.9977 39.3646 90.8739 36.5897C90.8739 33.3769 90.2897 31.3321 90.5818 30.4559C91.1661 30.3099 91.7501 30.1638 92.3344 30.1638C94.9632 35.5675 92.9185 38.7803 90.8739 44.33C90.2897 44.4761 89.7056 44.7682 89.2674 45.0602Z" fill="white"/>
</svg>
